<?xml version="1.0" encoding="utf-8"?>

<!DOCTYPE svg PUBLIC "-//W3C//DTD SVG 1.1//EN" "http://www.w3.org/Graphics/SVG/1.1/DTD/svg11.dtd">
<svg version="1.1" id="Layer_1" xmlns="http://www.w3.org/2000/svg" xmlns:xlink="http://www.w3.org/1999/xlink" x="0px" y="0px"
	 viewBox="0 0 1229 1693.043" style="enable-background:new 0 0 1229 1693.043;" xml:space="preserve">
<style type="text/css">
	.st0{stroke:#000000;stroke-width:0.0938;}
</style>
<path d="M1025.004,48.598c57.761-18.577,98.693,136.974,90.919,214.459c-2.738,22.511-10.908,43.134-13.561,53.04
	c28.321,24.799,27.756,68.07,33.107,101.631c0.566,2.858,0.611,6.21,3.154,8.142c15.81,14.702,6.078,33.196,2.57,46.398
	c-5.608,22.248-11.739,68.918-14.891,90.883c-0.314,3.1-2.076,5.841-2.381,8.933c2.182,7.516,9.292,8.058,14.513,40.323
	c2.414,38.366,11.382,29.663,27.895,99.6c7.259,31.177,5.23,56.216,18.288,85.706c15.715,37.024,11.74,74.733,2.408,114.006
	c-15.577,61.398-16.641,49.367-17.974,94.459c-3.745,122.156-13.6,30.448-26.529,117.735
	c-8.186,71.925-28.515,159.698-18.836,229.961c6.416,43.584,8.438,86.8,18.98,114.006c4.575,14.241,22.756,74.044,23.042,75.516
	c-2.67,25.034-11.904,26.713-20.229,28.164c-24.153,29.829-45.944,36.087-72.307,8.492c-35.807,12.926-48.041-0.322-57.839-22.692
	c-4.658-8.752-6.12-2.182-22.664-18.647c-8.448-9.116-5.55-7.721-1.582-34.572c3.243-20.466-0.841-29.444-1.105-36.046
	c-2.519-72.175-30.192-122.078-33.97-133.354c-2.858-0.602-5.769-1.096-8.25-2.723c-16.606,20.351-33.591,8.499-36.998,41.24
	c-1.312-2.57-2.148-5.68-4.682-7.324c-3.581-1.471-8.337,15.741-11.836,22.88c-13.507,1.835-17.162,16.928-27.985,22.494
	c-4.691,2.372-8.421,6.12-11.862,10.011c4.433,19.018,1.786,34.921,10.479,73.763c1.6,7.423,7.684,12.429,12.186,18.117
	c12.696,16.99,43.308,20.579,44.943,35.749c0.89,11.368,1.384,22.88-0.27,34.222c-0.844,5.123,4.521,22.783-8.609,36.81
	c-5.486,5.789-13.395,10.676-21.128,7.558c-2.21,20.641-8.367,12.707-21.047,12.06c-4.287-0.827-8.367,0.944-12.519,1.492
	c-8.097-1.06-16.329-0.962-24.363,0.62c-9.247,1.429-18.225,5.176-27.688,4.781c-4.448-0.018-7.441-3.541-10.317-6.399
	c-32.141-31.052-74.857-97.077-90.173-155.992c4.702,34.071,22.61,49.503-2.957,70.447c-11.844,0.404-23.177,4.664-35.012,5.122
	c-4.61,0.234-8.87-1.716-13.228-2.849C591.263,1539,540.707,1572.451,470.1,1568.55c-17.398-4.988-34.024-13.049-52.123-15.493
	c-4.691-0.701-9.463-0.395-14.154-1.024c-4.799-0.728-8.69-4.107-13.498-4.79c-8.421-1.591-16.697,2.166-25.136,1.267
	c-9.042-0.795-7.037-3.777-23.491-4.745c-98.877-5.312-73.643,29.498-154.006-13.246c-23.123-12.601-22.067-26.103-47.98-53.642
	c-51.517-52.548-79.259-134.636-80.251-202.929c0.081-4.97-2.795-9.373-2.696-14.325c-0.153-13.498,0.503-26.987,0.575-40.476
	c-0.315-29.506-8.174-16.708-20.589-67.562c-2.085-9.796-4.314-20.094-1.995-30.034c0.315-2.759,3.127-3.397,5.176-4.484
	c2.694-25.355,17.782-57.151,30.681-73.646c2.211-2.885,5.024-5.248,7.144-8.205c2.444-3.469,2.471-7.962,4.448-11.638
	c0.863-1.699,3.127-1.932,4.296-0.422c10.658,9.113,8.007,25.576,17.794,35.291c1.806,1.708,3.496,4.224,6.21,4.323
	c2.903-2.363,3.873-6.327,6.785-8.645c15.587-5.668,3.095,23.221,28.335,51.242c0.686-1,105.353-173.9,141.532-213.965
	c14.104-15.83,25.581-23.075,33.574-35.623c2.894-4.412,4.745-9.409,7.738-13.759c14.073-21.676,29.611-42.354,44.376-63.563
	c25.838-35.794,8.663-51.501,33.772-66.151c-0.602-6.264-3.568-11.934-4.889-18.027c-1.505-3.789,19.82-16.832,28.533-27.365
	c-5.509-1.519-11.287-2.157-16.554-4.493c21.634-18.593,39.179-44.755,35.749-65.118c-6.91-32.559-15.374-27.245-12.015-106.996
	c-0.135-6.695,0.8-14.028-2.732-20.058c-85.755-165.194-54.98-198.602-50.739-248.528c3.696-31.422,11.708-45.625,28.084-63.617
	c5.521-5.623,33.644-3.101,53.947,4.844c19.33,7.315,36.576,18.899,54.37,29.207c28.64,16.87,19.737,7.341,51.287,32.972
	c64.315-53.625,14.182-22.237,86.992-58.486c-2.957,2.66-3.631,6.623-2.579,10.353c84.675-8.268,146.809-48.079,218.566-11.099
	c31.779,15.466,43.908-25.244,99.088-81.465C988.455,69.591,1005.071,55.742,1025.004,48.598 M1021.391,90.701
	c-10.744,6.336-23.054,3.824-46.389,31.795c-8.086,9.781-36.059,50.608-36.702,53.121c-3.253,10.218-0.953,20.975-0.71,31.418
	c14.335,10.359,32.724,8.526,49.831,4.053c3.352-8.735,6.488-17.542,9.778-26.304c1.77,8.43,3.478,16.868,5.257,25.298
	c4.287-10.748,8.519-21.514,12.806-32.262c1.357,9.427,2.543,18.881,3.999,28.299c5.104-14.639,9.912-29.369,14.945-44.035
	c-2.094,19.321-4.269,38.625-6.363,57.937c8.268-6.92,16.5-13.893,24.776-20.822c-7.082,11.97-14.217,23.914-21.317,35.875
	c8.16-2.193,16.338-4.296,24.471-6.605c-9.104,7.702-12.923,19.995-12.384,31.633c11.625,13.275,23.186,34.45,30.69,35.246
	c27.104-21.439,14.212-153.455-16.311-196.612C1041.284,77.735,1034.298,84.063,1021.391,90.701 M420.466,197.93
	c-3.298,3.674-10.898,40.312-11.512,43.577c-2.453,13.04-1.914,26.367-2.121,39.569c-1.88,49.779,20.66,99.818,51.557,140.759
	c8.376-7.729,13.39-18.297,16.886-28.964c1.514-4.137-2.216-37.632-2.408-39.065c-2.094-6.686-4.844-13.157-7.153-19.762
	c3.846-1.042,7.693-2.103,11.521-3.244c-5.284-3.738-10.505-7.558-15.763-11.314c6.767,0.315,13.534,0.656,20.31,0.971
	c-4.889-10.802-9.805-21.586-14.666-32.388c11,9.625,21.955,19.313,32.936,28.964c0.449-7.135,0.899-14.28,1.357-21.415
	c5.14,8.753,10.218,17.533,15.349,26.286c2.768-7.594,5.5-15.197,8.277-22.781c2.31,9.014,4.529,18.045,6.857,27.059
	c0.71-4.206,1.384-8.421,2.202-12.599c0.539-0.018,1.609-0.036,2.148-0.054c3.397,4.646,6.884,9.229,10.281,13.884
	c-3.005-15.995-6.352-44.306,7.657-52.42c2.103-1.519,4.763-0.764,7.162-0.881C559.874,265.643,466.057,189.457,420.466,197.93
	 M884.083,366.324c-1.986-1.348-3.972-2.696-5.949-4.026c-13.1,19.625-27.913,51.816-23.051,74.221
	c3.533,17.918,5.805,18.41,10.856,20.373c3.253,4.529,7.315,8.852,12.797,10.55c24.553,7.763,38.189-30.173,52.842-62.467
	c0.032-21.684-1.619-19.523-11.341-43.918c-3.631,0.503-7.261,1.016-10.892,1.519c-1.088-3.1-2.175-6.192-3.253-9.283
	c-3.442,2.301-6.902,4.556-10.326,6.848c-0.674-2.346-1.438-4.664-2.283-6.938C890.293,357.535,887.219,361.947,884.083,366.324
	 M679.725,394.236c-1.222,1.968-2.444,3.945-3.658,5.922c-3.801-1.159-7.594-2.328-11.386-3.487
	c-0.135,1.654-0.27,3.307-0.386,4.961c-3.172-0.045-6.345-0.099-9.508-0.144c-0.395,3.568-0.782,7.135-1.177,10.703
	c-2.238-0.548-4.484-1.096-6.713-1.627c-1.263,5.66-7.757,33.051-4.412,36.873c7.648,10.937,15.951,22.053,27.544,29.081
	c3.58,2.326,56.274,25.717,66.825,2.588c6.092-14.074,6.125-37.092,2.238-52.815c-3.266-14.635-21.174-24.993-38.553-29.566
	c-3.595-1.141-6.992,1.195-10.344,2.148C686.698,397.328,683.203,395.782,679.725,394.236 M1078.043,434.066
	c-7.486,12.581-14.415,26.169-15.484,41.015c-3.55-3.972-6.282-8.555-8.951-13.13c2.629,17.091,2.47,71.455,18.072,95.385
	c-4.016,0.757-8.045,0.26-7.198,6.731c0.836,6.587,4.817,12.114,7.414,18.072c-11.072,2.858-21.99-2.399-32.873-3.819
	c-3.659-0.546-41.094,0.417-57.515-2.894c-8.6-1.528-16.131-6.758-24.983-7.207c5.379,10.796,40.804,41.94,45.015,68.209
	c2.662,17.018,5.323,38.357-4.278,44.835c-2.876,1.276-3.658-2.66-4.323-4.574c15.751-24.078-15.559-97.369-59.969-108.991
	c-7.324-1.824-13.058-7.135-20.04-9.769c-6.983-2.633-13.938-5.32-20.813-8.196c9.416,21.264,10.29,21.975,10.281,25.954
	c0.521,12.33,8.322,22.871,9.104,35.147c1.54,20.171-5.418,31.647-26.879,29.396c-5.14-0.494-9.912-3.658-11.737-8.591
	c-2.292,6.938-8.654,11.467-14.882,14.639c-7.711,1.438-15.682,0.108-23.455,1.078c-4.17,4.43-7.782,10.164-13.804,12.294
	c-3.343-0.872-6.327-2.687-9.391-4.215c-9.713,6.084-28.186,19.724-37.412,12.923c-3.765-2.57-4.43-7.836-8.528-10.038
	c-2.426-4.385-4.502-8.951-6.767-13.426c8.577-35.567,4.851-53.026-0.189-79.101c-44.15,55.882-76.356,109.831-171.413,113.161
	c-4.457,0.359-9.337-1.77-10.784-6.273c-6.165-17.889,4.257-18.687-4.619-66.448c-1.007-4.709-0.836-9.921-3.837-13.956
	c-11.746-18.117-33.125-28.749-54.415-29.773c-23.824-1.064-26.249-5.144-22.979,30.501c-2.876-2.561-5.796-5.06-8.762-7.513
	c4.949,12.674,0.734,18.703,11.764,35.3c2.678,3.864,4.61,8.412,8.376,11.404c19.994,16.776,9.944,12.448,14.927,19.115
	c5.877,8.672,13.858,15.592,20.616,23.536c-1.051-3.981-2.085-8.088-1.312-12.222c6.769,3.722,11.698,23.707,14.091,33.61
	c2.687,14.625,41.975,42.421,51.871,51.485c5.608,3.936,12.572,5.158,19.169,6.461c1.545,0.195,1.103-0.411,19.798,19.277
	c4.257,4.293,9.637,2.558,17.353,6.084c18.674,8.034,37.43,15.925,56.257,23.581c14.324,9.881,36.272,30.843,61.254,29.485
	c101.24,3.549,97.545-2.662,118.122-5.922c57.216-10.571,42.092-4.713,127.171-82.04c4.556-3.999,6.668-9.957,10.991-14.19
	c5.707-6.569,14.747-10.892,16.976-19.951c2.041-9.389,33.979-63.155,34.617-64.156c8.771-15.044,9.095-32.981,14.792-49.121
	c7.52-23.86,0.459-22.796,0.494-31.4c-0.656-9.077,5.734-16.365,8.016-24.749c2.867-8.259,1.681-17.093,2.489-25.639
	c0.979-10.371,5.554-19.861,9.122-29.503c5.751-15.349,3.422-23.082-5.662-48.483c-2.263-6.177-9.706-27.296-16.248-26.807
	C1089.052,417.153,1083.391,425.654,1078.043,434.066 M926.195,447.501c-5.096,3.532-7.98,9.157-11.009,14.379
	c-2.489,4.529-6.228,8.223-8.573,12.851c-2.031,3.909-3.945,7.881-6.228,11.656c3.038,1.501,7.082,2.31,8.196,6.012
	c3.352,7.899,10.874,12.887,18.432,16.284c-10.947-6.727-15.976-14.546-12.294-31.678c6.017-25.989,23.284-33.973,47.567-32.793
	C954.466,442.653,940.749,437.274,926.195,447.501 M976.619,448.04c38.13,19.496,28.796,69.412-29.638,66.789
	c28.842,5.563,59.794-6.677,62.026-47.809c0.71-3.02,2.588-5.563,4.08-8.232c-1.213-2.157-1.995-4.511-1.645-7.01
	c-3.541,1.402-7.073,3.334-10.883,3.703C992.607,452.938,984.671,450.278,976.619,448.04 M942.56,466.696
	c-2.633,1.348-3.631,4.35-4.853,6.839c-2.211,3.819,0.081,8.322,2.471,11.449c4.628,3.397,10.739,3.109,16.203,3.451
	c9.363-10.7,7.548-12.705-0.117-19.447C952.652,465.627,947.035,464.459,942.56,466.696 M673.524,492.947
	c13.228,2.498,26.133,7.702,36.711,16.149c10.632,7.889,0.123,40.548-6.542,52.572c16.869-15.579,13.256-33.268,18.603-40.323
	c2.139-2.606,5.122-4.305,7.684-6.443c-8.019-13.996-13.002-11.725-18.279-13.615c-5.949-2.049-11.638-4.799-17.695-6.497
	C687.381,492.848,680.381,492.102,673.524,492.947 M625.993,523.987c-2.543,4.619-6.641,7.89-10.47,11.377
	c0.476,4.925,6.39,6.066,10.245,7.441c1.567,17.361,26.509,30.224,43.936,31.93c5.814,0.692,11.323-1.51,16.787-3.109
	c-16.086,1.779-33.017-3.523-45.023-14.397c-8.715-14.616-11.058-35.986,2.741-52.671
	C637.379,510.273,631.825,517.301,625.993,523.987 M674.512,519.529c-8.565,3.02-13.127,6.949-7.288,19.124
	c1.752,3.316,4.7,6.83,8.762,6.884c5.403-2.832,16.26-7.29,9.409-20.508C683.4,521.21,679.024,517.624,674.512,519.529
	 M1049.295,809.819c-6.43,2.005-20.577,39.833-21.083,40.836c-2.193,4.242-6.453,6.776-9.202,10.595
	c-5.635,7.378-10.344,15.403-15.547,23.087c-14.273,20.735-12.533,11.697-18.89,15.224c-13.761,6.797-15.571,12.075-22.584,26.008
	c-4.574,9.974-7.633,9.628-18.27,42.912c-2.469,8.449-4.793,15.584,3.685,18.791c4.502-0.144,7.36-4.008,9.67-7.387
	c3.882-5.572,12.096-2.867,16.536-7.657c13.166-12.662,25.522-26.142,37.753-39.694
	C1032.979,909.82,1077.037,801.114,1049.295,809.819 M600.785,841.093c-2.332,4.679,40.424,74.96,85.85,106.016
	c20.273,13.272,17.622,8.604,25.396,2.579c7.711,5.042,14.325,11.602,22.242,16.347c4.152,2.741,9.427,2.48,13.696,5.006
	c1.914,1.294,4.134,0.701,6.174,0.09c18.583,7.823,38.977,1.895,55.196,16.005c2.624,2.148,5.787,5.113,9.463,3.568
	c2.93-1.195,6.408-2.444,8.007-5.356c0.24-2.137-7.709-26.372-13.992-34.078c-21.77-26.762-13.865-12.487-22.692-25.954
	c-11.694-18.143-14.601-13.517-25.199-15.367c-8.07-0.359-14.72-5.464-22.314-7.468c-5.805-1.016-11.737-0.602-17.596-0.917
	c-3.127-4.035-4.898-8.861-7.657-13.112c-1.86-2.975-6.408-4.727-9.265-2.112c-2.265,1.384-3.954,4.484-6.884,4.224
	c-3.945-3.037-6.21-8.07-10.883-10.182c-3.891-1.231-6.956,2.247-9.778,4.323c-2.603-3.551-12.282-22.296-19.636-14.064
	c-2.337,2.462-1.663,6.093-1.752,9.175c-3.109-1.842-6.363-3.487-9.059-5.904c-4.924-4.51-15.448-22.138-27.571-26.52
	C618.801,845.909,605.051,834.573,600.785,841.093 M1118.313,932.515c-1.555,2.247-3.685,4.062-6.354,4.808
	c-6.644-2.579-10.101,9.325-13.022,16.401c-2.768,8.349-10.236,13.66-16.293,19.546c-6.003,4.826-11.575,11.431-19.663,12.411
	c0.027-3.136,0.62-6.21,1.303-9.247c-21.284,8.578-42.864,29.954-61.667,43.118c-0.045-2.103-0.162-4.224-0.332-6.3
	c-36.585,34.258-72.015,50.423-87.234,46.362c1.564-2.741,3.469-5.257,5.311-7.809c-6.453,1.429-12.59,4.26-17.92,8.16
	c-0.881,4.287-4.116,7.63-8.259,8.906c-1.105-4.997-1.716-10.074-1.986-15.17c-1.725,6.893-2.732,15.942-10.335,18.908
	c-9.939-4.673-19.672-9.832-28.793-15.978c-25.504-16.93-9.289-7.95-41.087-19.295c9.426,8.468,13.185,26.063,6.066,26.646
	c-6.616,0.694-14.912-14.454-24.318-20.93c-23.566-15.292-29.165-23.667-67.769-31.337c3.045,6.605,11.189,10.707,9.508,14.226
	c-7.633,6.682-27.124-6.536-32.927-8.151c-0.494,3.055-0.503,6.156-0.333,9.256c-5.293-4.907-8.897-11.818-15.412-15.25
	c-0.027,3.136,0.548,6.219,1.168,9.292c-2.543-3.289-4.916-6.749-8.124-9.436c-1.258,3.784-2.885,8.672-7.423,9.427
	c-5.635-2.866-23.21-18.548-28.704-26.771c0.566,3.981,0.971,7.989,1.438,11.997c-22.8-10.425-46.777-28.258-57.515-32.811
	c-0.377,4.287,0.764,8.484,1.267,12.716c-14.521-5.886-38.26-20.976-52.968-24.345c9.906,18.292,43.652,43.213,38.158,51.665
	c3.927,1.788,8.475,2.57,11.629,5.734c12.641,11.907,9.945,20.804,4.017,21.101c-2.552-0.261-5.078-0.755-7.63-0.962
	c10.551,16.465,27.642,13.957,38.221,23.348c-2.831,3.559-6.974,5.554-10.559,8.205c5.104,2.75,11.575,1.06,16.14,5.006
	c29.8,18.881,56.491,15.454,93.884,58.072c59.312,68.211,16.037,29.254,72.289,70.483c-2.588-0.063-5.158,0.189-7.639,0.89
	c5.949,4.691,13.624,6.542,20.93,7.953c4.206,1.042,7.333-2.31,10.892-3.783c5.185-1.231,10.874,3.307,10.757,8.663
	c0,5.53-10.576,13.747-17.785,24.552c-5.141,7.611-16.172,44.175-17.389,54.549c-1.543,13.07,1.354,91.101-22.674,96.796
	c-27.097,6.428-72.599-0.448-87.324-32.559c-3.055-6.372-6.677-12.456-10.523-18.369c11.33,23.651,13.875,40.863-12.231,43.442
	c18.967,35.307,52.039,61.333,58.98,92.204c7.506,33.354,18.589,48.634,21.272,55.448c11.326,31.773,23.458,53.339,45.985,71.687
	c7.876,30.927,37.415,34.925,45.626,28.227c-11.223-10.145-32.64-29.738-24.669-42.543c25.076,20.918,27.659,36.338,40.063,41.321
	c10.021,3.895,30.306,1.479,33.224-1.806c10.75-11.564-26.938-53.52-43.981-52.887c2.39-1.995,5.059-4.08,8.34-3.99
	c17.972,0,48.668,33.081,53.651,46.057c26.069-22.385-0.722-56.375-29.44-72.505c5.501-4.806,26.901,6.236,41.905,25.406
	c10.473-26.066-19.654-52.255-43.145-54.271c-14.409-6.806-17.023-22.805-22.566-75.641c-11.656-48.328-5.241-70.703-4.529-85.85
	c2.637-35.853,4.197-90.065,14.19-93.534c3.011,0.072,5.707,3.244,5.203,6.273c-8.02,82.539-20.154,114.817-4.278,132.635
	c6.3-4.925,10.73-11.683,15.79-17.776c5.85-6.47,12.752-11.844,19.528-17.299c37.269-30.009,24.057-33.896,39.119-57.901
	c2.049-3.415,5.428-5.958,9.472-6.327c1.186,6.569-0.099,13.381,1.582,19.879c5.437-7.549,6.084-18.063,13.471-24.255
	c2.858,4.907,0.701,11.126,3.55,16.023c1.177,1.815,3.586,1.159,4.745-0.333c6.462-7.01,10.874-15.619,17.102-22.817
	c2.238,2.651,4.287,5.599,5.051,9.05c-6.582,10.459-21.797,10.377-10.443,43.37c13.031,39.398,18.818,80.638,28.443,120.899
	c1.183,7.865-5.688,35.112-6.21,53.902c0,5.698,0.315,12.465,5.051,16.419c4.556,3.505,10.694,2.4,15.916,1.366
	c2.364-9.912,9.157-18.369,17.389-24.138c5.257-3.649,12.626-5.725,18.459-2.157c6.381,3.864,9.005,11.296,11.368,17.974
	c-1.986-2.939-4.278-5.877-7.639-7.288c-15.941-7.37-36.888,9.375-26.232,33.35c4.628,6.731,11.188,12.168,18.504,15.772
	c4.439,2.076,10.38,3.604,14.505,0.081c3.954-3.613,4.089-9.382,4.538-14.334c0.917-8.834,1.384-18.063,5.473-26.134
	c2.516-5.051,7.495-8.807,13.148-9.481c6.749-0.971,14.469-3.801,20.661,0.539c1.582,0.872,3.19,4.035,0.62,4.637
	c-4.691,0.449-9.589,1.698-12.761,5.446c-6.3,7.162-6.39,17.272-10.092,25.693c12.98,43.076,47.242,16.793,39.569-19.106
	c0.863-1.779,1.725-3.541,2.615-5.284c1.797,1.797,4.179,3.622,4.08,6.462c0.036,5.491-1.393,11.287,0.791,16.563
	c1.492,3.55,5.904,4.493,9.364,3.963c3.145-1.743,4.376-5.464,5.832-8.546c1.132-3.073,2.912-5.976,3.46-9.211
	c-0.539-9.787-2.57-19.474-5.554-28.793c-5.015-14.882-12.006-29.009-16.913-43.936c0.279-0.198,0.836-0.611,1.123-0.818
	c-2.898-47.003-22.313-95.82-22.862-139.519c0.144-2.966-1.887-5.311-2.642-8.034c-2.148-6.875,0.243-14.684-3.316-21.164
	c-5.463-7.918-25.916-4.594-29.926-1.231c-47.167,35.115-30.677-17.411-36.226-40.44c-5.886-9.277-51.913-34.439-29.324-51.144
	c32.353-23.681,19.534-54.284,27.086-71.813c6.34-8.483,20.242-21.728,16.356-32.011c5.067-13.964,17.511-19.918,32.074-31.957
	c-3.559,0.782-7.109,1.6-10.658,2.391c15.457-16.868,28.892-35.596,39.47-55.906c-7.645,2.664-10.886,5.986-13.543,4.7
	c-3.231-6.941,34.502-34.903,36.828-36.747c-16.17-9.469,11.014-39.418,5.401-64.794
	C1129.852,920.589,1123.022,926.224,1118.313,932.515 M480.013,1169.045c44.733,56.489,34.261,58.266,37.025,80.593
	c26.43,27.281,36.597,66.067,25.154,92.384c-2.043-5.009-0.784-5.203-8.78-3.352c0.745,11.98,2.612,42.85,0.71,54.424
	c-11.885-0.823-43.294-19.013-28.317,1.483c-9.346-3.927-19.51-5.545-29.593-5.859c-2.714,2.624-5.41,5.284-8.034,8.016
	c-22.756-3.468-21.011-7.802-36.288,10.622c-23.391,29.649-21.187,30.321-18.468,43.918c1.474,7.477,4.089,15.304,1.959,22.916
	c-2.408-2.795-3.532-7.054-7.189-8.519c-8.749,4.108,0.605,13.861,0.881,21.388c-3.631,3.01-8.717,4.197-11.467,8.259
	c-2.301,3.406-4.116,7.126-6.497,10.496c-4.091,6.481-2.422,1.807-5.086,20.948c5.931,0,11.871-0.566,17.794-0.216
	c7.091,3.199,11.108,10.883,18.477,13.705c19.402,8.25,41.06,5.877,61.334,10.263c35.593,7.545,42.628,5.979,68.11-1.663
	c46.315-13.844,24.071-8.943,89.652-7.675c-1.228-26.216-49.552-34.675-56.67-49.517c19.751-12.825,62.174,32.754,69.656,49.535
	c19.433,9.393,26.048-14.402,23.204-19.78c-4.619-9.858-12.393-17.74-18.063-26.942c-1.84-2.328,1.675-10.11,12.303,0.153
	c9.322,9.569,20.717,29.198,15.745,41.591c24.896-23.669,14.946-44.002-14.648-61.433c-21.729-12.854-59.682-25.538-69.755-27.356
	c-39.625-8.067-27.976-8.234-48.376-6.426c-12.258,1.231-24.381,3.676-36.684,4.458c33.462-8.95,58.985-9.748,72.424-25.909
	c8.728-10.544,19.233-34.558,19.42-70.025c0.14-26.272-8.708-39.335-14.765-55.053c-3.262-7.863-9.391-14.01-13.561-21.344
	c-2.354-4.053-2.274-8.915-4.035-13.175c-9.553-25.416-35.965-48.637-59.339-72.64c-5.41-5.428-10.91-11.009-17.767-14.586
	C494.167,1169.495,486.905,1169.522,480.013,1169.045z"/>
<path class="st0" d="M733.329,590.701c2.09-1.09,5.07-1.16,6.82,0.6c0.87,1.76-0.37,3.41-1.12,4.95
	c-3.81,6.67-8.44,12.83-13.08,18.94c-2.46,3.25-5.27,6.32-6.94,10.09c-6.04,13.4-7.78,28.33-7.33,42.91
	c0.51,14.79,3.12,29.51,7.54,43.64c1.39,4.81,3.72,9.35,4.63,14.31c1.11,2.6-2.96,5.12-4.71,2.95c-6.48-6.08-12.56-13.05-15.6-21.52
	c-1.77-5.02-3.62-10.09-3.9-15.44c-0.96-13.03,0.32-26.09,1.9-39.02c1.6-10.13,2.52-20.72,7.53-29.88
	c4.88-9.34,10.21-18.58,17.14-26.57C728.289,594.361,730.519,592.081,733.329,590.701z"/>
<path class="st0" d="M851.989,649.221c26.55-11.04,56.38-17.21,84.84-10.57c9.49,2.64,16.68,11.73,17.25,21.53
	c0.56,8.64,0.21,17.32,0.58,25.98c0.31,7.85-0.4,16.62-6.14,22.6c-5,4.67-8.84,10.82-15.29,13.71c-6.41,3.67-13.92,4.49-20.56,7.49
	c-2.5,1.19-0.97,3.99-0.28,5.84c1.54,3.29,1.26,7,1.47,10.55c14.62,6.88,29.72,13.48,45.88,15.56c11.2,1.44,22.8-0.18,33.08-4.89
	c5.55-2.27,10.26-6.34,16.21-7.67c6.45-1.75,9.48-8.05,13.03-13.05c1.18-2.02,3.48-1.1,5.31-0.75c5.25-3.97,10.24-9.33,17.2-9.88
	c0.41,5.11-2.66,9.54-6.14,12.95c-3.29,3.1-5.74,6.96-8.98,10.11c-3.88,3.85-8.47,6.85-12.76,10.21c-4.2,3.46-9.59,4.77-14.58,6.65
	c-16.92,5.97-34.97,9.71-52.98,7.91c-13.65-1.26-26.95-4.76-40.33-7.58c-6.13,4.23-12.22,8.52-18.27,12.85
	c-17.18,11.61-37.99,17.06-58.58,17.61c-12.61,0.29-25.34-0.99-37.45-4.61c-5.72-1.9-11.89-2.14-17.41-4.7
	c-6.57-2.92-13.59-5.9-18.39-11.44c-2.04-1.78-0.08-4.33,2.19-4.24c8.42,0.15,16.79,2.39,24.13,6.54
	c16.35,5.44,33.65,8.61,50.92,7.96c10.56-0.45,21.25-2.85,30.34-8.43c8.36-5.14,17.08-9.95,24.43-16.54
	c3.55-2.83,2.75-7.73,2.86-11.72c-0.21-4.3,0.34-8.88-1.84-12.78c-5.04,5.43-12.92,5.17-19.73,5.02
	c-8.22-0.49-16.51-1.45-24.37-3.96c-2.2-0.62-3.19-2.84-4.47-4.48c-5.05-7.48-12.06-13.28-17.92-20.07
	c-5.55-6.31-8.44-14.41-10.86-22.33c-1.13-4.64-2.62-10.26,0.66-14.38c3.56-4.7,8.14-8.51,12.67-12.24
	C835.149,658.101,843.069,652.611,851.989,649.221 M921.709,670.961c-5.92,7.44-6.82,17.27-8.83,26.23
	c-1.61,5.73,0.43,11.55,1.25,17.24c6.61-2.27,8.43-9.68,9.48-15.8c4-10.78,10.1-21.49,9.62-33.33
	C928.859,665.751,924.449,667.361,921.709,670.961 M835.869,689.421c0.79,2.02,1.7,4.09,3.48,5.47c6.31,5.48,13.75,9.49,20.08,14.95
	c2.62,2.36,4.1,5.76,6.98,7.88c3.21,2.49,6.41,5.07,10.06,6.9c1.34,0.54,2.89,1.39,4.37,0.71c0.56-0.97,1.1-1.95,1.6-2.94
	c-3.68-3.53-8.44-6.13-11.09-10.58C864.949,698.591,850.559,689.421,835.869,689.421z"/>
</svg>
