<?xml version="1.0" encoding="UTF-8" standalone="no"?>
<svg id="svg5502" xmlns:rdf="http://www.w3.org/1999/02/22-rdf-syntax-ns#" xmlns="http://www.w3.org/2000/svg" height="338.67mm" width="508mm" version="1.1" xmlns:cc="http://creativecommons.org/ns#" xmlns:dc="http://purl.org/dc/elements/1.1/" viewBox="0 0 1800 1200">
<defs id="defs5504">
<clipPath id="clipPath5200" clipPathUnits="userSpaceOnUse">
<rect id="rect5202" opacity=".472" height="600" width="600" y="1326.2" x="-4123.9" fill="#2e4c24"/>
</clipPath>
<pattern id="pattern5204" width="600" patternUnits="userSpaceOnUse" patternTransform="translate(-4123.9 1326.2)" height="600">
<g id="g5179" transform="translate(4123.9 -1326.2)" clip-path="url(#clipPath5200)">
<g id="g5117">
<path id="path4942" d="m-3779.9 1472.1c-32.25-3.4058-44.927-41.075-18.826-55.939 21.61-12.306 44.992-1.9578 41.441 18.341-2.6022 14.875-16.76 17.085-30.586 4.7738-2.3012-2.049-2.3554-2.3204-0.1233-0.6179 16.071 12.258 31.68 5.9739 27.499-11.071-5.6218-22.917-47.448-12.754-47.421 11.522 0.022 20.075 23 33.188 45.247 25.821 28.241-9.3506 39.12-33.245 26.645-58.52-13.446-27.242-42.272-34.298-64.631-15.821-1.7178 1.4196-1.2726 0.7088 0.8371-1.3363 38.162-36.994 98.397 24.65 63.504 64.988-9.9362 11.487-29.198 19.379-43.586 17.86z" fill="#f00"/>
<path id="path4944" d="m-3666.2 1760.3c-12.199-1.1032-27.463-6.4688-35.436-12.456-0.3635-0.2729-0.7262-0.4963-0.806-0.4963-0.4937 0-6.2269-4.3955-9.2046-7.057-24.7-22.076-23.008-62.596 3.7273-89.282 23.345-23.302 55.293-24.346 77.688-2.5397 1.3062 1.2718 1.894 2.1299 1.0151 1.4818-0.2124-0.1566-1.4503-1.0797-2.7508-2.0512-27.916-20.853-61.235-13.576-81.077 17.708-7.7176 12.168-11.889 29.587-9.7297 40.633 0.056 0.2854 0.1559 0.846 0.2225 1.2456 2.2196 13.324 9.602 24.775 20.953 32.503 0.7993 0.5442 1.6868 1.1497 1.9723 1.3456 0.2854 0.1959 1.3131 0.8176 2.2837 1.3816 11.295 6.5624 18.494 9.2024 29.066 10.659 4.101 0.565 12.06 0.162 16.817-0.8516 9.651-2.0563 19.733-8.5332 25.022-16.075 0.5606-0.7993 1.0722-1.5 1.1369-1.5571 1.9242-1.6972 5.2578-10.31 5.922-15.301 2.4669-18.534-10.792-32.416-34.78-36.417-17.542-2.9253-31.518 8.8194-29.73 24.984 1.8877 17.063 15.972 21.122 33.957 9.7855 4.4365-2.7964 4.1247-2.1218-0.698 1.5103-18.436 13.885-36.998 6.6927-37.049-14.355-0.056-23.508 23.082-34.118 50.209-23.022 26.196 10.715 32.659 38.349 14.222 60.808-9.666 11.774-27.113 18.849-42.953 17.416z" fill="#0ff"/>
<path id="path4946" d="m-3899.8 1718.5c0.8918 0.2244 2.6175 0.6799 3.8348 1.0122 18.954 5.1741 38.687-3.0845 45.023-18.843l0.7188-1.7875-1.25-2.201c-5.4621-9.6188-9.8223-28.152-10.534-44.776-0.2266-5.2948 1.2148-6.6261 3.6325-3.3549 7.8957 10.683 12.024 20.465 12.975 30.746 0.5216 5.6354 0.045 11.232-1.3524 15.884l-0.5897 1.9631 0.7601 1.2778c6.5742 11.052 18.29 15.45 29.212 10.965 10.824-4.4442 16.469-19.607 16.145-43.37l-0.062-4.5196-2.4637-0.9343c-14.934-5.6633-28.918-22.503-35.912-43.246-10.352-30.702 17.756-31.508 33.374-0.9567 4.5421 8.8854 7.1527 20.091 8.5157 36.551l0.4145 5.005 0.9241 0.2004c17.02 3.6919 30.636-11.679 32.62-36.823 0.2307-2.9237 0.352-2.654-1.6718-3.716-27.51-14.436-45.756-62.348-26.991-70.876 16.406-7.4561 33.015 24.296 33.33 63.719l0.047 5.9019 1.2552 0.445c16.093 5.7047 31.586-21.256 31.468-54.758-0.1147-32.567-11.85-60.038-31.852-74.561-1.9028-1.3817-1.3699-1.2697 0.7198 0.1513 7.8134 5.313 14.415 12.528 19.83 21.671 25.722 43.433 12.774 116.22-19.752 111.04-0.9788-0.1561-1.817-0.2737-1.8627-0.2614-0.046 0.012-0.1372 0.8344-0.2035 1.8267-1.7792 26.623-17.952 44.523-36.804 40.735-0.5586-0.1122-0.8847-0.081-0.8742 0.083 0.852 13.238-1.858 29.551-6.3207 38.048-9.37 17.841-31.878 19.003-44.096 2.277-0.7481-1.0243-1.386-1.872-1.4175-1.884-0.032-0.012-0.3668 0.6367-0.745 1.4414-7.6822 16.343-28.719 23.545-48.532 16.616-2.644-0.9247-2.8819-1.0329-1.515-0.6889zm51.345-24.764c2.9194-12.566-0.2115-26.382-8.7843-38.762-2.1653-3.127-2.0433-3.375-1.4092 2.8639 1.3398 13.183 4.6376 26.202 8.8176 34.811 1.0494 2.1611 1.1145 2.2126 1.3759 1.0874zm46.632-40.047c-0.8779-11.03-2.6397-20.859-4.9176-27.436-9.8746-28.512-37.421-40.052-29.295-12.272 5.4659 18.686 19.311 36.517 32.374 41.696l2.0623 0.8176-0.2232-2.8046zm38.396-39.506c0.6628-5.6247-1.0673-22.487-3.36-32.748-4.7865-21.422-15.704-35.31-24.33-30.951-7.2965 3.6868-7.1228 18.767 0.3862 33.521 6.4983 12.768 19.13 27.118 26.978 30.647 0.1877 0.084 0.2763-0.043 0.3265-0.4686z" fill="#ff0"/>
<path id="path4948" d="m-3547.2 1653.9c-10.737-1.0662-21.523-4.3432-26.471-8.0422-0.3426-0.2562-0.763-0.5172-0.9343-0.5802-0.8645-0.318-4.1209-3.0081-6.3375-5.2354-4.6567-4.6792-6.8082-8.7707-8.1075-15.418-0.085-0.4365-0.171-0.4135-2.4238 0.6519-10.463 4.948-20.88 5.8122-30.882 2.5619-19.608-6.372-23.374-23.3-10.685-48.02l1.8115-3.5288-0.598-0.142c-0.3289-0.078-1.3922-0.2855-2.3627-0.4609-21.224-3.836-30.502-22.864-21.939-44.997 0.602-1.5558 0.5784-1.6328-0.4992-1.6328-6.5728 0-15.103-5.4427-18.944-12.088-6.2148-10.751-4.1572-30.112 4.9374-46.459 0.6035-1.0848 1.3485-2.4297 1.6556-2.9887 2.4223-4.4095 8.0033-12.226 11.419-15.994 0.4071-0.4489 0.7401-0.8753 0.7401-0.9474 0-0.2142 6.3932-6.6199 8.3045-8.3207 12.91-11.488 29.584-19.969 44.469-22.618 1.9624-0.3492 2.2151-0.1455 0.3646 0.294-26.829 6.3723-50.991 25.513-63.931 50.644-14.508 28.178-9.599 52.679 10.934 54.568 1.5374 0.1415 2.6435 0.1611 2.7442 0.049 0.093-0.1036 0.9608-1.7299 1.9288-3.6139 3.3383-6.4972 8.321-13.896 14.182-21.059 6.2511-7.6393 15.253-15.464 22.63-19.671 25.58-14.587 43.707 2.039 24.181 22.179-3.4446 3.553-7.1465 6.4685-12.14 9.561-14.722 9.1184-31.397 15.426-43.495 16.454-3.9561 0.3362-3.5829 0.147-4.4162 2.2394-6.9857 17.541-2.5438 31.924 11.579 37.492 3.0374 1.1975 8.9814 2.631 10.91 2.631 0.079 0 0.8114-1.0977 1.6267-2.4394s1.9092-3.0467 2.4309-3.7889c1.4573-2.0734 3.4708-4.8514 3.7104-5.1195 0.1184-0.1323 0.8692-1.1059 1.6685-2.1637 7.8985-10.453 16.391-17.685 26.782-22.808 30.578-15.076 50.413-1.5371 26.886 18.352-17.569 14.852-38.417 23.34-57.405 23.37l-3.3218 0.01-1.4821 2.6426c-11.378 20.286-10.938 35.406 1.2227 42.056 10.878 5.949 23.928 5.5129 35.933-1.2009l1.3267-0.7419 0.2542-1.919c1.684-12.714 12.022-24.158 29.908-33.109 7.9637-3.9852 8.9429-2.6514 3.922 5.3426-0.6813 1.0847-1.352 2.1554-1.4904 2.3793-1.3161 2.1284-7.1273 9.8698-7.4089 9.8698-0.081 0-0.244 0.2102-0.3633 0.4671-1.5572 3.3535-16.829 17.207-21.73 19.712l-0.8077 0.4128 0.1209 2.0051c0.8345 13.85 17.666 25.904 40.064 28.692 1.8523 0.2305 3.5079 0.4522 3.6792 0.4925 0.3974 0.094-3.1857 0.079-4.1522-0.017zm-35.502-38.705c5.9805-4.3595 14.562-12.563 17.006-16.256 0.1812-0.2738 1.032-1.3716 1.8907-2.4395 6.2653-7.7917 7.0392-9.6463 3.2048-7.6796-14.098 7.231-23.43 17.006-25.738 26.96-0.5857 2.5256-0.6428 2.5347 3.6363-0.5846zm-35.606-43.687c12.405-0.7911 26.543-5.8977 38.714-13.983 19.277-12.807 24.883-22.254 14.057-23.687-10.121-1.3399-26.128 4.53-36.784 13.489-1.0277 0.8641-2.5515 2.1197-3.3862 2.7903s-2.3622 2.1975-3.3944 3.3931c-1.0321 1.1955-2.1391 2.4651-2.4599 2.8212-2.9923 3.3213-5.2915 6.2057-7.6651 9.6162-0.6199 0.8907-1.3926 1.9931-1.7172 2.4499-2.4293 3.4188-2.4319 3.4511-0.27 3.3004 0.4568-0.032 1.7647-0.1175 2.9066-0.1903zm-24.083-46.934c3.9398-0.7775 8.5991-2.1075 12.659-3.6136 2.4332-0.9026 9.0781-3.639 9.867-4.0632 0.2855-0.1535 2.0356-1.0299 3.8891-1.9475 11.85-5.8663 20.579-12.485 25.206-19.112 7.3001-10.456 2.3628-17.881-10.301-15.491-14.101 2.6612-30.684 17.135-43.35 37.836-1.2716 2.0782-3.709 6.8297-3.5732 6.9655 0.1487 0.1487 3.8765-0.2329 5.6031-0.5737z" fill="#00f"/>
<path id="path4950" fill="#f0f" d="m-4112.9 1545.6c3.4058 32.25 41.075 44.927 55.939 18.826 12.306-21.61 1.9578-44.992-18.341-41.441-14.875 2.6022-17.085 16.76-4.7738 30.586 2.049 2.3012 2.3205 2.3554 0.618 0.1233-12.258-16.071-5.974-31.68 11.071-27.499 22.917 5.6218 12.754 47.448-11.522 47.421-20.075-0.022-33.188-23-25.822-45.247 9.3506-28.241 33.245-39.12 58.52-26.645 27.242 13.446 34.298 42.272 15.821 64.631-1.4196 1.7178-0.7088 1.2725 1.3363-0.8372 36.994-38.162-24.65-98.397-64.988-63.504-11.487 9.9362-19.379 29.198-17.86 43.586z"/>
<path id="path4952" fill="#f60" d="m-3942.5 1526.8c1.1032 12.199 6.4689 27.463 12.456 35.436 0.273 0.3634 0.4963 0.7261 0.4963 0.8059 0 0.4937 4.3955 6.2269 7.057 9.2046 22.077 24.7 62.596 23.008 89.282-3.7272 23.302-23.345 24.346-55.293 2.5396-77.688-1.2717-1.3061-2.1298-1.8939-1.4818-1.0151 0.1567 0.2125 1.0797 1.4504 2.0512 2.7509 20.854 27.916 13.576 61.235-17.708 81.077-12.168 7.7176-29.587 11.889-40.633 9.7297-0.2855-0.056-0.846-0.1559-1.2457-0.2225-13.324-2.2197-24.775-9.6021-32.503-20.953-0.5442-0.7993-1.1497-1.6868-1.3456-1.9723s-0.8176-1.3131-1.3815-2.2837c-6.5625-11.295-9.2025-18.494-10.659-29.066-0.565-4.101-0.1619-12.06 0.8516-16.817 2.0564-9.6511 8.5333-19.733 16.075-25.022 0.7993-0.5606 1.5-1.0722 1.5571-1.1369 1.6972-1.9242 10.31-5.2578 15.301-5.9221 18.534-2.4668 32.416 10.792 36.417 34.78 2.9254 17.542-8.8194 31.518-24.984 29.73-17.063-1.8877-21.122-15.972-9.7854-33.957 2.7963-4.4365 2.1217-4.1248-1.5103 0.6979-13.885 18.436-6.6928 36.998 14.355 37.049 23.508 0.056 34.118-23.082 23.022-50.209-10.715-26.196-38.349-32.659-60.808-14.222-11.774 9.666-18.849 27.113-17.416 42.953z"/>
<path id="path4954" fill="#f00" d="m-4112.8 1769.9c-0.2245-0.8919-0.68-2.6176-1.0123-3.8349-5.1741-18.954 3.0845-38.687 18.843-45.023l1.7875-0.7188 2.201 1.2499c9.6188 5.4621 28.152 9.8224 44.776 10.534 5.2948 0.2266 6.6261-1.2149 3.3549-3.6325-10.683-7.8958-20.465-12.024-30.746-12.975-5.6354-0.5217-11.232-0.045-15.884 1.3523l-1.9631 0.5898-1.2778-0.7602c-11.052-6.5742-15.449-18.29-10.965-29.212 4.4442-10.824 19.607-16.469 43.37-16.145l4.5196 0.062 0.9343 2.4636c5.6633 14.934 22.503 28.918 43.246 35.912 30.702 10.352 31.508-17.756 0.9567-33.374-8.8854-4.5421-20.091-7.1528-36.551-8.5158l-5.005-0.4144-0.2004-0.9241c-3.6919-17.02 11.679-30.636 36.823-32.62 2.9236-0.2307 2.6539-0.352 3.7159 1.6718 14.436 27.51 62.348 45.756 70.876 26.991 7.4562-16.406-24.296-33.015-63.719-33.33l-5.9019-0.047-0.4449-1.2552c-5.7048-16.093 21.256-31.586 54.758-31.468 32.567 0.1146 60.038 11.85 74.561 31.852 1.3817 1.9028 1.2697 1.3698-0.1512-0.7198-5.3131-7.8135-12.528-14.415-21.672-19.83-43.433-25.722-116.22-12.774-111.04 19.752 0.1561 0.9788 0.2737 1.817 0.2614 1.8627-0.012 0.046-0.8344 0.1372-1.8267 0.2035-26.623 1.7792-44.523 17.952-40.735 36.804 0.1122 0.5586 0.081 0.8848-0.083 0.8742-13.238-0.8519-29.551 1.8581-38.048 6.3207-17.841 9.3701-19.003 31.878-2.277 44.096 1.0243 0.7482 1.8721 1.3861 1.884 1.4176 0.012 0.031-0.6367 0.3667-1.4414 0.745-16.342 7.6822-23.545 28.719-16.616 48.532 0.9246 2.644 1.0328 2.882 0.6889 1.5151zm24.764-51.345c12.566-2.9194 26.382 0.2114 38.762 8.7843 3.127 2.1653 3.375 2.0433-2.8639 1.4092-13.183-1.3399-26.202-4.6376-34.811-8.8177-2.1612-1.0493-2.2127-1.1144-1.0875-1.3758zm40.047-46.632c11.03 0.8779 20.859 2.6396 27.436 4.9175 28.512 9.8747 40.052 37.421 12.272 29.295-18.686-5.466-36.517-19.311-41.696-32.374l-0.8176-2.0624 2.8046 0.2233zm39.506-38.396c5.6247-0.6628 22.487 1.0673 32.748 3.3601 21.422 4.7865 35.31 15.704 30.951 24.33-3.6868 7.2964-18.767 7.1227-33.521-0.3862-12.768-6.4983-27.118-19.13-30.647-26.978-0.084-0.1877 0.043-0.2764 0.4686-0.3266z"/>
<path id="path4956" fill="#008000" d="m-4111.7 1425c6.1446 8.8688 14.246 16.708 19.882 19.237 0.3902 0.1752 0.8226 0.416 0.9608 0.5351 0.6977 0.6014 4.6305 2.1423 7.6538 2.9988 6.3516 1.7994 10.973 1.6939 17.415-0.3975 0.423-0.1373 0.4445-0.051 0.6068 2.4355 0.7538 11.549 5.0559 21.076 12.753 28.242 15.09 14.048 31.718 9.1227 47.168-13.972l2.2056-3.2969 0.4144 0.4539c0.228 0.2496 0.9256 1.0784 1.5501 1.8418 13.658 16.693 34.797 15.565 49.99-2.6663 1.0679-1.2816 1.1467-1.2984 1.6699-0.3563 3.1911 5.7462 12.09 10.561 19.765 10.693 12.416 0.2138 28.343-10.985 38.219-26.872 0.6553-1.0543 1.4694-2.3585 1.809-2.8984 2.6789-4.2585 6.8032-12.933 8.4384-17.748 0.1949-0.5738 0.406-1.0719 0.4691-1.107 0.1872-0.104 2.6834-8.8031 3.2425-11.3 3.7759-16.864 3.0949-35.558-1.8164-49.857-0.6474-1.8852-0.9482-2.0072-0.434-0.1761 7.4542 26.548 2.4512 56.965-13.237 80.478-17.591 26.364-41.394 33.967-53.014 16.934-0.87-1.2754-1.4241-2.2328-1.3747-2.3755 0.045-0.1314 1.0458-1.6798 2.2229-3.4408 4.0594-6.0728 8.1085-14.021 11.525-22.622 3.6438-9.1737 6.1142-20.842 6.2106-29.334 0.334-29.445-23.002-37.22-31.13-10.372-1.4338 4.7363-2.1854 9.3881-2.4649 15.255-0.8241 17.298 1.7565 34.938 6.7313 46.013 1.6268 3.6218 1.611 3.2037 0.1863 4.948-11.944 14.623-26.674 17.722-38.398 8.0793-2.5216-2.074-6.6606-6.5745-7.5967-8.2602-0.039-0.069 0.5658-1.2423 1.3429-2.6065 0.7772-1.3642 1.7367-3.1482 2.1323-3.9647 1.1051-2.2806 2.5562-5.3896 2.6742-5.7293 0.058-0.1676 0.5449-1.2967 1.0816-2.509 5.3034-11.98 7.5034-22.916 6.9375-34.487-1.6655-34.052-23.131-44.819-29.097-14.595-4.455 22.571-1.7534 44.917 7.439 61.531l1.6082 2.9066-1.5907 2.5786c-12.211 19.796-25.642 26.752-37.361 19.349-10.482-6.6217-16.436-18.242-16.395-31.997v-1.5201l1.5542-1.1538c10.298-7.6449 15.284-22.239 14.425-42.221-0.3823-8.8971-2.0236-9.1056-6.5747-0.8351-0.6176 1.1223-1.228 2.2284-1.3566 2.4581-1.2217 2.184-5.1683 11.023-5.0315 11.269 0.039 0.07-0.065 0.3154-0.2321 0.5444-2.1757 2.9895-6.8727 23.067-6.6831 28.567l0.031 0.9065-1.8116 0.8679c-12.514 5.9947-31.223-2.8681-44.535-21.096-1.1009-1.5074-2.0984-2.8473-2.2169-2.9774-0.2748-0.3019 1.4776 2.8234 2.0308 3.6218zm51.073 12.246c0.9078-7.3449 3.9131-18.83 5.9557-22.76 0.1514-0.2913 0.6981-1.5681 1.2148-2.8373 3.7701-9.2602 5.0157-10.837 5.1579-6.5301 0.5227 15.836-3.4923 28.739-11.074 35.59-1.9236 1.7382-1.9039 1.7926-1.2544-3.4628zm55.479 9.9181c-5.3309-11.229-7.7303-26.068-6.5703-40.634 1.8373-23.071 7.3743-32.558 13.883-23.789 6.0852 8.1981 8.7246 25.041 6.0655 38.707-0.2564 1.3179-0.6144 3.2597-0.7954 4.315s-0.7743 3.132-1.3184 4.6148-1.1166 3.0669-1.2721 3.5203c-1.451 4.2284-2.8564 7.6388-4.6856 11.37-0.4777 0.9744-1.0663 2.1851-1.3081 2.6906-1.8095 3.7836-1.8364 3.8016-2.7543 1.8384-0.1939-0.4148-0.754-1.5999-1.2447-2.6335zm52.724-1.7317c-1.2331-3.8218-2.3324-8.5409-2.9867-12.821-0.3922-2.5654-1.2259-9.7031-1.2381-10.599 0-0.324-0.088-2.2795-0.1856-4.3454-0.6245-13.208 0.924-24.053 4.4716-31.315 5.5974-11.459 14.485-10.747 18.544 1.4849 4.5194 13.62-0.084 35.145-12.032 56.267-1.1996 2.1205-4.1702 6.5583-4.3548 6.5055-0.2022-0.058-1.6783-3.5021-2.2187-5.177z"/>
<path id="path4958" fill="#008000" d="m-3927.6 1799.7c-20.662 24.994-59.062 14.741-57.024-15.227 1.687-24.811 23.234-38.578 38.189-24.4 10.958 10.39 4.9754 23.41-12.926 28.129-2.9794 0.7854-3.2356 0.6805-0.5831-0.2388 19.098-6.619 22.487-23.1 5.9713-29.036-22.206-7.9806-36.853 32.494-16.606 45.888 16.743 11.076 40.37-0.8263 46.527-23.438 7.8152-28.704-6.0856-50.976-34.045-54.549-30.135-3.8502-51.947 16.273-48.905 45.119 0.2337 2.2162-0.1126 1.4522-0.651-1.4362-9.7399-52.25 74.925-68.381 89.258-17.006 4.0814 14.629 0.014 35.043-9.2048 46.195z"/>
<path id="path4960" fill="#f60" d="m-3896.5 1758.4c9.0523-5.8709 19.524-10.046 25.698-10.246 0.4275-0.014 0.9189-0.072 1.092-0.1301 0.8738-0.2914 5.0972-0.2234 8.2192 0.1324 6.5591 0.7475 10.794 2.6001 15.96 6.9813 0.3392 0.2877 0.3918 0.2162 1.4863-2.0226 5.0832-10.398 12.681-17.577 22.523-21.283 19.295-7.2653 32.807 3.606 38.329 30.838l0.7883 3.8874 0.5558-0.2624c0.3057-0.1444 1.2657-0.6462 2.1334-1.1152 18.974-10.256 38.102-1.1849 45.232 21.45 0.5012 1.5911 0.5677 1.6366 1.4094 0.9637 5.1342-4.1039 15.195-5.1783 22.345-2.3861 11.567 4.5172 22.048 20.925 25.151 39.373 0.2059 1.2241 0.4637 2.7399 0.5728 3.3682 0.861 4.9569 1.3823 14.547 1.0664 19.623-0.038 0.6048-0.032 1.1458 0.013 1.2021 0.1338 0.1673-0.8606 9.1628-1.2915 11.685-2.9113 17.035-10.64 34.069-20.614 45.433-1.3148 1.4981-1.6393 1.4967-0.4684 0 16.978-21.729 23.9-51.767 18.316-79.476-6.2609-31.069-25.393-47.142-42.612-35.797-1.2892 0.8495-2.1654 1.5247-2.1739 1.6754-0.01 0.1389 0.3295 1.9511 0.7498 4.0273 1.4491 7.1594 2.1765 16.05 2.0706 25.304-0.113 9.8702-2.2588 21.603-5.3945 29.495-10.873 27.366-35.414 25.697-32.736-2.2265 0.4722-4.9259 1.5434-9.5147 3.5128-15.048 5.8066-16.315 14.893-31.654 23.701-40.01 2.8804-2.7327 2.707-2.3518 2.0515-4.5065-5.4956-18.063-17.945-26.524-32.454-22.056-3.1202 0.961-8.6583 3.5526-10.164 4.7565-0.062 0.05 0.052 1.3641 0.2525 2.9212 0.2008 1.5571 0.411 3.572 0.4669 4.4774 0.1562 2.5295 0.318 5.9567 0.2981 6.3157-0.01 0.1772 0.012 1.4065 0.048 2.7319 0.3567 13.096-1.7613 24.049-6.679 34.538-14.472 30.869-38.419 32.678-32.46 2.4517 4.4502-22.572 15.436-42.218 30.249-54.097l2.5915-2.0781-0.4923-2.9895c-3.7787-22.95-13.562-34.486-27.214-32.088-12.212 2.145-22.132 10.634-27.318 23.374l-0.5731 1.4079 0.9996 1.6576c6.6231 10.983 5.6936 26.377-2.6892 44.536-3.7324 8.0854-5.33 7.6549-6.3994-1.7243-0.1451-1.2728-0.2897-2.5279-0.3214-2.7892-0.3009-2.4842-0.5952-12.16-0.3752-12.335 0.063-0.05 0.059-0.3166-0.01-0.5917-0.8775-3.5918 2.402-23.949 4.6662-28.965l0.3731-0.8268-1.3463-1.4908c-9.2997-10.298-29.974-9.2041-49.21 2.6034-1.5908 0.9764-3.0225 1.8371-3.1815 1.9125-0.3688 0.1749 2.4392-2.0508 3.2541-2.5793zm51.898 8.0665c-1.9495 7.1394-3.5308 18.905-3.1337 23.317 0.029 0.3269 0.05 1.7157 0.046 3.086-0.029 9.9982 0.5244 11.93 2.2916 7.9997 6.4972-14.451 7.6833-27.912 3.2712-37.13-1.1194-2.3385-1.0805-2.3813-2.4754 2.7271zm55.089 11.893c-9.1957 8.3632-17.051 21.18-21.509 35.095-7.0616 22.04-5.5423 32.92 3.8093 27.279 8.7426-5.273 17.581-19.852 20.31-33.504 0.2632-1.3165 0.6695-3.2487 0.9028-4.2938 0.2333-1.045 0.4731-3.1914 0.5329-4.7697 0.06-1.5784 0.1318-3.2612 0.16-3.7397 0.2636-4.4627 0.2585-8.1513-0.017-12.297-0.072-1.0827-0.1566-2.4263-0.1883-2.9858-0.2371-4.1873-0.2552-4.2142-1.8498-2.7465-0.3369 0.31-1.3051 1.1936-2.1516 1.9634zm48.116 21.624c-2.5921 3.0673-5.4012 7.0154-7.632 10.727-1.337 2.2243-4.819 8.5106-5.1703 9.3346-0.1271 0.2981-0.947 2.0754-1.822 3.9494-5.5935 11.981-8.2794 22.602-7.7555 30.667 0.8266 12.726 9.3191 15.443 17.719 5.6686 9.353-10.883 13.269-32.543 10.237-56.621-0.3044-2.4173-1.3672-7.6507-1.5581-7.672-0.209-0.023-2.8825 2.6024-4.0184 3.9466z"/>
<path id="path4962" d="m-4224.4 1851.7c0.4515-0.8012 1.3096-2.3661 1.9069-3.4777 9.3011-17.306 28.879-25.927 44.668-19.669l1.791 0.7098 0.7352 2.422c3.2128 10.585 13.648 26.51 25.212 38.473 3.6831 3.8107 5.6412 3.6823 4.9342-0.3234-2.3087-13.082-6.5584-22.811-13.358-30.582-3.7269-4.2592-8.1132-7.7681-12.449-9.9585l-1.8296-0.9243-0.403-1.4312c-3.4859-12.378 1.3936-23.901 12.166-28.732 10.676-4.7877 25.558 1.5617 42.565 18.16l3.2347 3.1571-1.0192 2.4297c-6.1785 14.729-3.5987 36.465 6.6252 55.821 15.133 28.65 35.074 8.8242 23.677-23.54-3.3146-9.4124-9.6417-19.022-20.638-31.346l-3.3436-3.7472 0.491-0.8081c9.044-14.883 29.566-14.171 49.164 1.7067 2.2787 1.8461 2.1667 1.5724 1.543 3.7712-8.4778 29.888 13.697 76.113 32.803 68.38 16.705-6.761 5.1197-40.67-23.248-68.048l-4.2469-4.0987 0.5418-1.2165c6.946-15.597 37.165-8.2645 61.376 14.893 23.535 22.511 35.372 49.938 32.128 74.443-0.3086 2.3312-0.023 1.8677 0.386-0.6261 1.5285-9.3242 0.8436-19.08-2.057-29.303-13.779-48.561-75.474-89.301-94.113-62.145-0.5609 0.8172-1.0529 1.5059-1.0933 1.5306-0.041 0.024-0.6995-0.4751-1.4646-1.1104-20.529-17.044-44.645-17.645-54.882-1.3666-0.3033 0.4823-0.5503 0.6975-0.662 0.5769-9.0117-9.734-22.706-19.003-31.94-21.619-19.389-5.4923-35.732 10.027-32.018 30.405 0.2275 1.2479 0.4029 2.2942 0.3899 2.3253-0.013 0.031-0.7142-0.1725-1.5582-0.4524-17.14-5.6844-36.85 4.609-45.47 23.747-1.1503 2.5538-1.2358 2.8009-0.5438 1.5729zm53.315-20.175c11.122 6.5373 18.983 18.322 22.056 33.063 0.7762 3.7235 1.04 3.8058-3.047-0.9504-8.636-10.05-15.805-21.407-19.168-30.366-0.8444-2.2492-0.8369-2.3318 0.159-1.7465zm61.151-6.2334c7.3931 8.2325 13.307 16.279 16.507 22.46 13.873 26.795 3.27 54.716-11.276 29.693-9.7843-16.831-13.179-39.15-7.9381-52.188l0.8274-2.0584 1.8799 2.0933zm55.087-0.634c4.5349 3.393 15.57 16.26 21.431 24.989 12.236 18.223 14.788 35.703 5.6864 38.956-7.698 2.7515-18.513-7.7598-24.039-23.364-4.7825-13.505-6.4884-32.546-3.643-40.667 0.068-0.1942 0.2214-0.1709 0.5646 0.086z" fill="#00f"/>
<path id="path4964" fill="#00f" d="m-3624.4 1851.7c0.4515-0.8012 1.3096-2.3661 1.907-3.4777 9.301-17.306 28.879-25.927 44.668-19.669l1.7911 0.7098 0.7351 2.422c3.2128 10.585 13.648 26.51 25.212 38.473 3.6831 3.8107 5.6412 3.6823 4.9343-0.3234-2.3088-13.082-6.5585-22.811-13.358-30.582-3.727-4.2592-8.1133-7.7681-12.449-9.9585l-1.8295-0.9243-0.4031-1.4312c-3.4859-12.378 1.3936-23.901 12.166-28.732 10.676-4.7877 25.558 1.5617 42.565 18.16l3.2347 3.1571-1.0192 2.4297c-6.1785 14.729-3.5987 36.465 6.6252 55.821 15.133 28.65 35.074 8.8242 23.677-23.54-3.3146-9.4124-9.6417-19.022-20.638-31.346l-3.3436-3.7472 0.491-0.8081c9.044-14.883 29.566-14.171 49.164 1.7067 2.2787 1.8461 2.1667 1.5724 1.543 3.7712-8.4777 29.888 13.697 76.113 32.803 68.38 16.705-6.761 5.1198-40.67-23.248-68.048l-4.2469-4.0987 0.5418-1.2165c6.9461-15.597 37.165-8.2645 61.376 14.893 23.535 22.511 35.372 49.938 32.128 74.443-0.3086 2.3312-0.023 1.8677 0.386-0.6261 1.5285-9.3242 0.8437-19.08-2.057-29.303-13.779-48.561-75.474-89.301-94.113-62.145-0.5609 0.8172-1.0529 1.5059-1.0933 1.5306-0.04 0.024-0.6995-0.4751-1.4646-1.1104-20.529-17.044-44.645-17.645-54.882-1.3666-0.3033 0.4823-0.5504 0.6975-0.6621 0.5769-9.0116-9.734-22.706-19.003-31.94-21.619-19.389-5.4923-35.732 10.027-32.018 30.405 0.2274 1.2479 0.4028 2.2942 0.3898 2.3253-0.013 0.031-0.7142-0.1725-1.5582-0.4524-17.14-5.6844-36.85 4.609-45.47 23.747-1.1503 2.5538-1.2358 2.8009-0.5438 1.5729zm53.315-20.175c11.122 6.5373 18.983 18.322 22.056 33.063 0.7761 3.7235 1.0399 3.8058-3.0471-0.9504-8.636-10.05-15.805-21.407-19.168-30.366-0.8444-2.2492-0.8369-2.3318 0.159-1.7465zm61.151-6.2334c7.3931 8.2325 13.307 16.279 16.507 22.46 13.873 26.795 3.2699 54.716-11.276 29.693-9.7843-16.831-13.179-39.15-7.9381-52.188l0.8275-2.0584 1.8798 2.0933zm55.087-0.634c4.5349 3.393 15.57 16.26 21.431 24.989 12.236 18.223 14.788 35.703 5.6864 38.956-7.698 2.7515-18.513-7.7598-24.039-23.364-4.7825-13.505-6.4883-32.546-3.643-40.667 0.068-0.1942 0.2214-0.1709 0.5646 0.086z"/>
<path id="path4966" d="m-3901.3 1947.9c25.934 19.469 60.872 0.519 51.882-28.141-7.4428-23.728-31.613-32.075-42.836-14.792-8.2248 12.664 0.6375 23.924 19.146 24.326 3.0805 0.067 3.305-0.095 0.5111-0.3686-20.116-1.969-27.266-17.2-12.596-26.834 19.724-12.953 43.43 22.974 26.877 40.732-13.688 14.685-39.444 8.6381-50.718-11.907-14.311-26.08-6.005-50.986 20.343-60.998 28.398-10.791 54.312 3.6733 58.101 32.43 0.291 2.2094 0.4491 1.3856 0.2971-1.5486-2.7499-53.078-88.839-48.962-90.76 4.3402-0.547 15.178 8.1823 34.075 19.753 42.761z" fill="#0ff"/>
<path id="path4968" fill="#0ff" d="m-3901.3 1347.9c25.934 19.469 60.872 0.519 51.882-28.141-7.4428-23.728-31.613-32.075-42.836-14.792-8.2248 12.664 0.6375 23.924 19.146 24.326 3.0805 0.067 3.305-0.095 0.5111-0.3686-20.116-1.969-27.266-17.2-12.596-26.834 19.724-12.953 43.43 22.974 26.877 40.732-13.688 14.685-39.444 8.638-50.718-11.907-14.311-26.08-6.005-50.986 20.343-60.998 28.398-10.791 54.312 3.6732 58.101 32.43 0.291 2.2094 0.4491 1.3856 0.2971-1.5486-2.7499-53.078-88.839-48.962-90.76 4.3401-0.547 15.178 8.1823 34.075 19.753 42.761z"/>
<path id="path4970" d="m-3704.2 1442.5c-0.5531-0.7348-1.6429-2.1483-2.4217-3.1411-12.127-15.458-12.178-36.85-0.1155-48.807l1.3682-1.3563 2.5137 0.2973c10.985 1.2993 29.758-1.8781 45.353-7.6762 4.9675-1.8468 5.6347-3.6921 1.6815-4.6501-12.911-3.1287-23.528-3.1351-33.372-0.02-5.3959 1.7072-10.369 4.3193-14.113 7.4133l-1.5802 1.3056-1.4727-0.2044c-12.737-1.7678-21.338-10.857-21.446-22.663-0.1067-11.7 11.675-22.789 33.699-31.717l4.189-1.698 1.8174 1.9077c11.017 11.564 31.965 17.913 53.796 16.306 32.313-2.3798 22.143-28.596-12.075-31.127-9.9519-0.7361-21.292 1.2084-36.99 6.343l-4.7733 1.5612-0.5435-0.7738c-10.01-14.251-1.1314-32.767 21.27-44.358 2.6047-1.3476 2.309-1.3547 4.0735 0.098 23.984 19.747 75.222 17.96 75.796-2.6433 0.5017-18.014-35.208-20.992-71.661-5.977l-5.4573 2.2478-0.8974-0.984c-11.505-12.616 7.3254-37.361 38.246-50.259 30.057-12.538 59.929-12.389 81.079 0.4053 2.012 1.2172 1.7019 0.7695-0.4188-0.6046-7.9298-5.1378-17.142-8.4207-27.67-9.8611-50.012-6.8417-112.07 33.351-94.658 61.311 0.5238 0.8414 0.9576 1.5682 0.964 1.6151 0.01 0.047-0.7157 0.4504-1.6044 0.8967-23.844 11.976-34.061 33.829-23.251 49.732 0.3203 0.4712 0.4185 0.7838 0.2631 0.8378-12.53 4.3543-26.511 13.185-32.609 20.596-12.804 15.562-5.1362 36.755 15.021 41.521 1.2343 0.2918 2.2633 0.5505 2.2865 0.5749 0.023 0.024-0.4443 0.5852-1.039 1.2462-12.078 13.424-10.548 35.607 3.5297 51.176 1.8786 2.0776 2.0707 2.2549 1.2231 1.1288zm2.8869-56.932c10.447-7.5692 24.394-10.048 39.132-6.9539 3.7224 0.7814 3.9036 0.5727-2.0921 2.4106-12.669 3.8834-25.947 5.8989-35.504 5.389-2.3991-0.1279-2.4718-0.1679-1.5363-0.8457zm18.801-58.522c10.506-3.4732 20.248-5.6658 27.193-6.1201 30.109-1.9694 51.438 18.936 22.683 22.233-19.342 2.2173-41.15-3.6186-50.994-13.646l-1.5542-1.5831 2.6713-0.8832zm21.5-50.722c4.9262-2.7946 21.137-7.7468 31.484-9.6178 21.6-3.9059 38.637 0.7632 37.969 10.406-0.5648 8.1554-14.53 13.85-31.041 12.658-14.289-1.0315-32.418-7.1014-38.717-12.963-0.1507-0.1403-0.068-0.2714 0.3051-0.4829z" fill="#f00"/>
<path id="path4972" fill="#f00" d="m-3704.2 2042.5c-0.5531-0.7348-1.6429-2.1483-2.4217-3.1411-12.127-15.458-12.178-36.85-0.1155-48.807l1.3682-1.3563 2.5137 0.2973c10.985 1.2993 29.758-1.8781 45.353-7.6762 4.9675-1.8468 5.6347-3.6921 1.6815-4.6501-12.911-3.1287-23.528-3.1351-33.372-0.02-5.3959 1.7072-10.369 4.3192-14.113 7.4132l-1.5802 1.3057-1.4727-0.2044c-12.737-1.7678-21.338-10.857-21.446-22.663-0.1067-11.7 11.675-22.789 33.699-31.717l4.189-1.698 1.8174 1.9077c11.017 11.564 31.965 17.913 53.796 16.306 32.313-2.3799 22.143-28.596-12.075-31.127-9.9519-0.7362-21.292 1.2084-36.99 6.343l-4.7733 1.5612-0.5435-0.7738c-10.01-14.251-1.1314-32.767 21.27-44.358 2.6047-1.3477 2.309-1.3548 4.0735 0.098 23.984 19.747 75.222 17.96 75.796-2.6433 0.5017-18.014-35.208-20.992-71.661-5.9771l-5.4573 2.2479-0.8974-0.984c-11.505-12.616 7.3254-37.361 38.246-50.26 30.057-12.538 59.929-12.389 81.079 0.4054 2.012 1.2172 1.7019 0.7695-0.4188-0.6046-7.9298-5.1378-17.142-8.4207-27.67-9.8611-50.012-6.8418-112.07 33.351-94.658 61.311 0.5238 0.8415 0.9576 1.5683 0.964 1.6152 0.01 0.047-0.7157 0.4503-1.6044 0.8967-23.844 11.976-34.061 33.829-23.251 49.732 0.3203 0.4712 0.4185 0.7838 0.2631 0.8378-12.53 4.3542-26.511 13.185-32.609 20.596-12.804 15.562-5.1362 36.755 15.021 41.521 1.2343 0.2918 2.2633 0.5505 2.2865 0.5749 0.023 0.024-0.4443 0.5851-1.039 1.2461-12.078 13.424-10.548 35.607 3.5297 51.176 1.8786 2.0776 2.0707 2.2549 1.2231 1.1287zm2.8869-56.932c10.447-7.5692 24.394-10.048 39.132-6.9539 3.7224 0.7814 3.9036 0.5727-2.0921 2.4106-12.669 3.8834-25.947 5.8989-35.504 5.3891-2.3991-0.128-2.4718-0.168-1.5363-0.8458zm18.801-58.522c10.506-3.4732 20.248-5.6658 27.193-6.1201 30.109-1.9694 51.438 18.936 22.683 22.233-19.342 2.2173-41.15-3.6186-50.994-13.646l-1.5542-1.5832 2.6713-0.8832zm21.5-50.722c4.9262-2.7946 21.137-7.7468 31.484-9.6177 21.6-3.9059 38.637 0.7631 37.969 10.406-0.5648 8.1554-14.53 13.85-31.041 12.658-14.289-1.0315-32.418-7.1014-38.717-12.963-0.1507-0.1403-0.068-0.2714 0.3051-0.4829z"/>
<path id="path4952-1" d="m-3541.9 1407.8c19.084 1.7183 35.211-16.963 33.993-35.416-0.5341-18.184-10.724-38.291-29.467-43.255-24.449-7.0149-54.273 10.804-56.555 36.83-0.6258 9.4135 2.6876 19.418 9.3285 26.106 3.3789-0.9347-1.6759-5.0879-1.9985-7.4074-7.2104-13.985-2.4477-32.189 10.306-41.328 13.779-11.157 36.168-14.448 49.646-1.1372 11.279 12.206 16.774 32.018 7.8937 47.06-6.099 10.934-22.485 16.971-32.704 8.1731-7.6002-7.4039-10.304-20.052-6.2734-29.847 3.8165-9.6886 20.763-10.6 24.138-0.3676 1.6939 6.9236-4.1212 12.058-6.9281 17.517 2.7296 1.7959 4.698-3.0864 6.564-4.689 5.3339-6.1187 6.1767-17.188-1.5567-21.774-9.4223-6.0691-23.976-2.3286-27.718 8.7289-5.0854 14.09 0.2372 33.252 14.883 39.259 2.0624 0.8166 4.2419 1.3358 6.4498 1.5471z" fill="#ff0"/>
<path id="path5095" fill="#ff0" d="m-4141.9 1407.8c19.084 1.7183 35.211-16.963 33.993-35.416-0.5341-18.184-10.724-38.291-29.467-43.255-24.449-7.0149-54.273 10.804-56.555 36.83-0.6258 9.4135 2.6876 19.418 9.3285 26.106 3.3789-0.9347-1.6759-5.0879-1.9985-7.4074-7.2104-13.985-2.4477-32.189 10.306-41.328 13.779-11.157 36.168-14.448 49.646-1.1372 11.279 12.206 16.774 32.018 7.8937 47.06-6.099 10.934-22.485 16.971-32.704 8.1731-7.6002-7.4039-10.304-20.052-6.2734-29.847 3.8165-9.6886 20.763-10.6 24.138-0.3676 1.6939 6.9236-4.1212 12.058-6.9281 17.517 2.7296 1.7959 4.698-3.0864 6.564-4.689 5.3339-6.1187 6.1767-17.188-1.5567-21.774-9.4223-6.0691-23.976-2.3286-27.718 8.7289-5.0854 14.09 0.2372 33.252 14.883 39.259 2.0624 0.8166 4.2419 1.3358 6.4498 1.5471z"/>
</g>
</g>
</pattern>
</defs>
<g id="layer1" transform="translate(4123.9 -726.21)">
<rect id="rect4931" height="1200" width="1800" y="726.21" x="-4123.9" fill="url(#pattern5204)"/>
</g>
</svg>
